<svg width="412" height="401" viewBox="0 0 412 401" fill="none" xmlns="http://www.w3.org/2000/svg">
<path d="M4.95384 392V326.545H49.6342V339.393H20.7741V352.817H46.7898V365.697H20.7741V392H4.95384ZM57.0243 392V342.909H72.6529V392H57.0243ZM64.8546 337.188C62.66 337.188 60.7743 336.464 59.1976 335.015C57.6209 333.545 56.8326 331.776 56.8326 329.71C56.8326 327.664 57.6209 325.917 59.1976 324.468C60.7743 322.998 62.66 322.263 64.8546 322.263C67.0705 322.263 68.9561 322.998 70.5115 324.468C72.0882 325.917 72.8766 327.664 72.8766 329.71C72.8766 331.776 72.0882 333.545 70.5115 335.015C68.9561 336.464 67.0705 337.188 64.8546 337.188ZM99.9542 392.703C96.332 392.703 93.0401 391.766 90.0785 389.891C87.1168 388.016 84.7518 385.203 82.9833 381.453C81.2148 377.703 80.3306 373.048 80.3306 367.487C80.3306 361.712 81.2468 356.961 83.0792 353.232C84.9116 349.504 87.3086 346.744 90.2702 344.955C93.2532 343.165 96.4599 342.27 99.8903 342.27C102.468 342.27 104.674 342.717 106.506 343.612C108.338 344.486 109.851 345.615 111.044 347C112.238 348.385 113.143 349.823 113.761 351.315H114.081V326.545H129.709V392H114.24V384.042H113.761C113.1 385.555 112.163 386.972 110.948 388.293C109.734 389.614 108.211 390.679 106.378 391.489C104.567 392.298 102.426 392.703 99.9542 392.703ZM105.387 380.526C107.284 380.526 108.903 379.994 110.245 378.928C111.588 377.842 112.621 376.318 113.346 374.358C114.07 372.398 114.432 370.097 114.432 367.455C114.432 364.77 114.07 362.458 113.346 360.519C112.642 358.58 111.609 357.089 110.245 356.045C108.903 355.001 107.284 354.479 105.387 354.479C103.448 354.479 101.808 355.011 100.466 356.077C99.1232 357.142 98.1005 358.644 97.3974 360.583C96.7155 362.522 96.3746 364.812 96.3746 367.455C96.3746 370.097 96.7262 372.398 97.4293 374.358C98.1324 376.318 99.1445 377.842 100.466 378.928C101.808 379.994 103.448 380.526 105.387 380.526ZM161.964 392.927C156.829 392.927 152.398 391.915 148.669 389.891C144.961 387.845 142.106 384.937 140.104 381.165C138.122 377.373 137.131 372.866 137.131 367.646C137.131 362.575 138.133 358.143 140.135 354.351C142.138 350.537 144.961 347.575 148.605 345.466C152.248 343.335 156.542 342.27 161.485 342.27C164.979 342.27 168.175 342.813 171.073 343.9C173.971 344.987 176.474 346.595 178.584 348.726C180.693 350.857 182.334 353.488 183.505 356.62C184.677 359.731 185.263 363.3 185.263 367.327V371.226H142.596V362.149H170.721C170.7 360.487 170.306 359.006 169.539 357.707C168.772 356.407 167.717 355.395 166.375 354.67C165.054 353.925 163.53 353.552 161.804 353.552C160.057 353.552 158.491 353.946 157.106 354.734C155.721 355.501 154.624 356.556 153.814 357.898C153.005 359.219 152.579 360.722 152.536 362.405V371.641C152.536 373.644 152.93 375.402 153.719 376.915C154.507 378.406 155.626 379.567 157.074 380.398C158.523 381.229 160.249 381.645 162.252 381.645C163.637 381.645 164.894 381.453 166.023 381.07C167.153 380.686 168.122 380.121 168.932 379.376C169.741 378.63 170.349 377.714 170.753 376.627L185.104 377.043C184.507 380.26 183.197 383.062 181.172 385.448C179.17 387.813 176.538 389.656 173.278 390.977C170.018 392.277 166.247 392.927 161.964 392.927ZM235.624 347.927C235.262 346.585 234.729 345.402 234.026 344.379C233.323 343.335 232.46 342.451 231.437 341.727C230.414 341.002 229.243 340.459 227.921 340.097C226.6 339.713 225.152 339.521 223.575 339.521C220.4 339.521 217.652 340.288 215.329 341.822C213.028 343.357 211.249 345.594 209.992 348.534C208.735 351.453 208.106 355.001 208.106 359.177C208.106 363.374 208.713 366.954 209.928 369.915C211.142 372.877 212.9 375.136 215.201 376.691C217.502 378.246 220.294 379.024 223.575 379.024C226.473 379.024 228.923 378.555 230.926 377.618C232.95 376.659 234.484 375.306 235.528 373.559C236.572 371.812 237.094 369.756 237.094 367.391L240.034 367.742H224.118V356.205H252.339V364.866C252.339 370.725 251.093 375.743 248.6 379.919C246.128 384.095 242.719 387.302 238.372 389.539C234.047 391.776 229.072 392.895 223.447 392.895C217.204 392.895 211.718 391.542 206.988 388.836C202.257 386.13 198.571 382.273 195.929 377.266C193.287 372.238 191.966 366.272 191.966 359.369C191.966 353.999 192.765 349.237 194.363 345.082C195.961 340.906 198.188 337.369 201.043 334.472C203.919 331.574 207.243 329.379 211.015 327.888C214.807 326.396 218.887 325.651 223.255 325.651C227.048 325.651 230.574 326.194 233.834 327.281C237.115 328.367 240.013 329.901 242.527 331.883C245.063 333.864 247.119 336.219 248.696 338.946C250.272 341.673 251.252 344.667 251.636 347.927H235.624ZM255.015 326.545H272.689L286.528 353.935H287.103L300.942 326.545H318.616L294.678 370.139V392H278.953V370.139L255.015 326.545ZM324.672 326.545H344.263L360.883 367.071H361.65L378.269 326.545H397.861V392H382.456V351.794H381.912L366.188 391.585H356.344L340.62 351.57H340.076V392H324.672V326.545Z" fill="url(#paint0_linear_78_25)"/>
<path d="M175.1 43.9912C186.517 24.6604 214.483 24.6604 225.9 43.9912L346.979 248.998C358.594 268.663 344.417 293.5 321.578 293.5H79.4219C56.583 293.5 42.4062 268.663 54.0205 248.998L175.1 43.9912Z" fill="#FD7131" stroke="black"/>
<path d="M175.596 83.0234C187.011 63.6839 214.989 63.6839 226.404 83.0234L312.425 228.755C324.032 248.42 309.855 273.25 287.02 273.25H114.98C92.1451 273.25 77.9679 248.42 89.5752 228.755L175.596 83.0234Z" fill="black" stroke="black"/>
<path d="M175.457 117.936C186.877 98.6197 214.825 98.6197 226.245 117.936L284.51 216.487C296.135 236.152 281.96 261 259.115 261H142.587C119.742 261 105.567 236.152 117.193 216.487L175.457 117.936Z" fill="#FD7131" stroke="black"/>
<path d="M175.58 140.15C186.989 120.777 215.011 120.777 226.42 140.15L262.271 201.03C273.852 220.696 259.675 245.5 236.853 245.5H165.147C142.325 245.5 128.148 220.696 139.729 201.03L175.58 140.15Z" fill="black" stroke="black"/>
<defs>
<linearGradient id="paint0_linear_78_25" x1="74.4455" y1="455.75" x2="259.156" y2="204.593" gradientUnits="userSpaceOnUse">
<stop stop-color="#FF6B35"/>
<stop offset="1" stop-color="#F7931E"/>
</linearGradient>
</defs>
</svg>
